<svg xmlns="http://www.w3.org/2000/svg" enable-background="new 0 0 70 70" viewBox="0 0 70 70" id="cctv-camera"><path d="M21.95,6.1L17.2,16.37l1.99,0.92l22.35,10.33c1.75-2.67,5.23-3.74,8.22-2.36l9.17,4.24l3.13,1.45l5.44-6.13
							L24.77,5.06C23.7,4.57,22.44,5.03,21.95,6.1z M40.79,17.97c-0.17,0.37-0.53,0.58-0.91,0.58c-0.14,0-0.28-0.03-0.42-0.09
							l-14.6-6.75c-0.5-0.23-0.72-0.83-0.49-1.33c0.23-0.5,0.82-0.72,1.33-0.49l14.6,6.75C40.8,16.88,41.02,17.47,40.79,17.97z
							 M45.78,20.28c-0.17,0.37-0.53,0.58-0.91,0.58c-0.14,0-0.28-0.03-0.42-0.09l-0.93-0.43c-0.5-0.23-0.72-0.83-0.49-1.33
							c0.23-0.5,0.83-0.72,1.33-0.49l0.93,0.43C45.79,19.18,46.01,19.78,45.78,20.28z"></path><path d="M58.09 31.32l-3.84 8.32-37.4-17.29 1.5-3.24 23.92 11.05.94-1.44c.85-1.29 2.27-2.06 3.82-2.06.65 0 1.29.14 1.89.42L58.09 31.32zM59.99 37.31c-.71 1.52-1.64 2.59-3.16 1.89l-.61-.29 2.55-5.53.61.29C60.91 34.37 60.7 35.77 59.99 37.31zM35.94 33.4c-1.06 2.28-3.76 3.26-6.04 2.21-2.28-1.06-3.28-3.75-2.23-6.03L35.94 33.4zM24.37 45.25h-9.36v2h9.36c-.06-.32-.09-.66-.09-1C24.28 45.91 24.31 45.57 24.37 45.25zM30.9 37.97v2.75c-.32-.06-.66-.09-1-.09s-.68.03-1 .09v-3.37c.05.03.11.05.16.08C29.65 37.7 30.27 37.89 30.9 37.97zM33.52 46.25c0 2-1.61 3.62-3.62 3.62s-3.62-1.61-3.62-3.62 1.61-3.62 3.62-3.62S33.52 44.24 33.52 46.25zM3.5 65.14c-.55 0-1-.45-1-1V28.35c0-.55.45-1 1-1s1 .45 1 1v35.78C4.5 64.69 4.05 65.14 3.5 65.14zM12.51 37.72v17.05c0 1.4-1.13 2.54-2.54 2.54H5.5V35.18h4.47C11.38 35.18 12.51 36.32 12.51 37.72z"></path></svg>