<svg xmlns="http://www.w3.org/2000/svg" data-name="Layer 3" viewBox="0 0 64 64" id="elevator"><path d="M10,63H54a1,1,0,0,0,1-1V2a1,1,0,0,0-1-1H10A1,1,0,0,0,9,2V62A1,1,0,0,0,10,63Zm43-3.135-4-3.334V14h4ZM16.362,58H47.638l3.6,3H12.762ZM47,56H33V14H47ZM38,12H26V7H38Zm-7,2V56H17V14ZM15,56.531l-4,3.334V14h4ZM53,3v9H40V6a1,1,0,0,0-1-1H25a1,1,0,0,0-1,1v6H11V3Z"></path><path d="M21 33h6a1 1 0 00.895-1.447l-3-6a1.042 1.042 0 00-1.79 0l-3 6A1 1 0 0021 33zm3-4.764L25.382 31H22.618zM27 35H21a1 1 0 00-.895 1.447l3 6a1 1 0 001.79 0l3-6A1 1 0 0027 35zm-3 4.764L22.618 37h2.764zM37 33h6a1 1 0 00.9-1.447l-3-6a1.042 1.042 0 00-1.79 0l-3 6A1 1 0 0037 33zm3-4.764L41.382 31H38.618zM43 35H37a1 1 0 00-.9 1.447l3 6a1 1 0 001.79 0l3-6A1 1 0 0043 35zm-3 4.764L38.618 37h2.764z"></path></svg>