<svg xmlns="http://www.w3.org/2000/svg" viewBox="0 0 32 32" id="water-tap"><g data-name="Layer 2"><circle cx="10.005" cy="7" r="1.005"></circle><path d="M31 4H26a1 1 0 0 0-1 1V6H20a1 1 0 0 0-1-1H17V2h3a1 1 0 0 0 0-2H12a1 1 0 0 0 0 2h3V5H13a1 1 0 0 0-1 1v6H9a2 2 0 0 0-2 2v3a1 1 0 0 0 1 1v2H2V18H5a1 1 0 0 0 0-2H3V10A2 2 0 0 1 5 8H6A1 1 0 0 0 6 6H5a4 4 0 0 0-4 4v6a1 1 0 0 0-1 1v4a1 1 0 0 0 1 1H9a1 1 0 0 0 1-1V17a1 1 0 0 0-1-1V14h3a1 1 0 0 0 1 1h6a1 1 0 0 0 1-1h5v1a1 1 0 0 0 1 1h5a1 1 0 0 0 1-1V5A1 1 0 0 0 31 4zM14 13V7h4v6zm16 1H27V13a1 1 0 0 0-1-1H20V8h5v2a1 1 0 0 0 2 0V6h3zM3 24a1 1 0 0 0-2 0v4a1 1 0 0 0 2 0zM6 31V24a1 1 0 0 0-2 0v7a1 1 0 0 0 2 0zM9 29V26a1 1 0 0 0-2 0v3a1 1 0 0 0 2 0z"></path></g></svg>